<svg width="2568" height="1036" viewBox="0 0 2568 1036" fill="none" xmlns="http://www.w3.org/2000/svg">
<path d="M844.044 502.5C844.044 508.504 827.158 511.506 793.387 511.506C759.616 511.506 742.73 508.504 742.73 502.5V380.661H672.513V502.5C672.513 508.504 655.628 511.506 621.857 511.506C588.085 511.506 571.2 508.504 571.2 502.5V151.285C571.2 143.869 588.085 140.161 621.857 140.161C655.628 140.161 672.513 143.869 672.513 151.285V275.773H742.73V152.345C742.73 147.401 751.09 143.869 767.808 141.75C776.502 141.044 785.028 140.691 793.387 140.691L818.966 141.75C835.685 143.869 844.044 147.401 844.044 152.345V502.5Z" fill="black"/>
<path d="M1056.98 287.957C1063.33 287.957 1066.51 300.318 1066.51 325.039C1066.51 332.455 1065.67 341.284 1064 351.525C1062.66 361.414 1059.99 366.358 1055.98 366.358H992.279V419.332H1084.56C1090.25 419.332 1094.09 427.101 1096.1 442.64C1097.1 449.35 1097.61 456.59 1097.61 464.359C1097.61 471.775 1096.6 481.487 1094.6 493.495C1092.59 505.502 1089.25 511.506 1084.56 511.506H913.034C900.328 511.506 893.975 506.032 893.975 495.084V154.464C893.975 145.282 897.821 140.691 905.511 140.691H1085.07C1092.09 140.691 1095.6 156.406 1095.6 187.837C1095.6 218.915 1092.09 234.454 1085.07 234.454H992.279V287.957H1056.98Z" fill="black"/>
<path d="M1315.86 158.172C1320.21 145.811 1341.61 139.631 1380.06 139.631C1389.76 139.631 1401.13 140.337 1414.17 141.75C1427.54 143.163 1433.73 144.928 1432.72 147.047L1328.4 368.477V497.732C1328.4 503.736 1319.21 507.974 1300.82 510.446C1291.45 511.859 1282.26 512.565 1273.23 512.565C1264.2 512.565 1255.17 512.035 1246.15 510.976C1227.76 508.504 1218.56 504.089 1218.56 497.732V371.655L1110.73 148.107C1109.39 145.988 1116.24 144.046 1131.29 142.28C1146.34 140.161 1159.04 139.101 1169.41 139.101C1210.54 139.101 1233.11 145.458 1237.12 158.172L1273.73 266.238L1315.86 158.172Z" fill="black"/>
<path d="M1530.14 400.261C1530.14 402.38 1518.1 403.44 1494.03 403.44C1470.29 403.44 1458.42 402.557 1458.42 400.791L1448.39 139.631C1448.39 136.806 1463.6 135.393 1494.03 135.393C1524.79 135.393 1540.17 136.629 1540.17 139.101L1530.14 400.261ZM1447.39 432.045C1447.39 429.573 1462.77 428.337 1493.53 428.337C1524.62 428.337 1540.17 429.397 1540.17 431.516V507.797C1540.17 511.329 1524.62 513.095 1493.53 513.095C1462.77 513.095 1447.39 512.035 1447.39 509.916V432.045Z" fill="black"/>
<path d="M817.462 722.164C817.462 758.893 802.415 786.792 772.322 805.863C788.706 812.219 802.415 823.167 813.449 838.706C824.484 854.245 830.001 876.317 830.001 904.923C830.001 933.176 819.97 955.601 799.908 972.2C780.18 988.798 751.759 997.097 714.644 997.097H596.278C590.594 997.097 585.912 995.155 582.234 991.27C578.556 987.032 576.717 981.558 576.717 974.848V635.817C576.717 631.933 577.219 629.46 578.222 628.401C579.559 626.988 582.067 626.282 585.745 626.282H700.099C778.341 626.282 817.462 658.243 817.462 722.164ZM673.015 712.099V781.495H675.523C707.622 781.495 723.672 770.194 723.672 747.592C723.672 735.231 720.495 726.226 714.142 720.575C708.124 714.925 697.925 712.099 683.548 712.099H673.015ZM673.015 844.003V912.869H682.043C696.421 912.869 706.953 910.044 713.641 904.393C720.328 898.743 723.672 889.737 723.672 877.377C723.672 865.016 720.495 856.364 714.142 851.42C708.124 846.476 697.925 844.003 683.548 844.003H673.015Z" fill="black"/>
<path d="M1033 636.877C1033 629.814 1051.06 626.282 1087.17 626.282C1123.62 626.282 1141.84 629.814 1141.84 636.877V880.025C1141.84 916.048 1129.64 945.536 1105.23 968.491C1080.82 991.093 1047.05 1002.39 1003.91 1002.39C961.114 1002.39 926.173 990.74 899.089 967.432C872.34 943.77 858.965 911.986 858.965 872.079V637.406C858.965 630.343 877.021 626.812 913.133 626.812C949.579 626.812 967.802 630.343 967.802 637.406V876.317C967.802 883.38 971.313 889.031 978.334 893.269C985.69 897.507 993.381 899.626 1001.41 899.626C1009.43 899.626 1016.62 897.683 1022.97 893.799C1029.66 889.914 1033 884.087 1033 876.317V636.877Z" fill="black"/>
<path d="M1279.73 989.681C1279.73 995.331 1263.85 998.157 1232.08 998.157C1199.98 998.157 1183.93 995.508 1183.93 990.211V644.823C1183.93 632.462 1190.12 626.282 1202.49 626.282H1298.29C1386.23 626.282 1430.2 662.481 1430.2 734.878C1430.2 756.774 1426.18 776.727 1418.16 794.738C1410.13 812.396 1398.77 826.522 1384.05 837.117L1447.25 948.361C1444.57 956.837 1435.88 966.549 1421.17 977.497C1401.11 992.683 1384.56 1000.28 1371.52 1000.28C1358.47 1000.28 1348.78 995.331 1342.43 985.443L1295.28 869.431H1279.73V989.681ZM1279.73 720.045V799.506H1282.24C1314 799.506 1329.89 785.556 1329.89 757.657C1329.89 744.943 1326.71 735.584 1320.36 729.581C1314.34 723.224 1304.31 720.045 1290.26 720.045H1279.73Z" fill="black"/>
<path d="M1575.57 989.681C1575.57 995.331 1559.69 998.157 1527.92 998.157C1495.82 998.157 1479.77 995.508 1479.77 990.211V644.823C1479.77 632.462 1485.96 626.282 1498.33 626.282H1594.13C1682.06 626.282 1726.03 662.481 1726.03 734.878C1726.03 756.774 1722.02 776.727 1714 794.738C1705.97 812.396 1694.6 826.522 1679.89 837.117L1743.09 948.361C1740.41 956.837 1731.72 966.549 1717.01 977.497C1696.94 992.683 1680.39 1000.28 1667.35 1000.28C1654.31 1000.28 1644.61 995.331 1638.26 985.443L1591.12 869.431H1575.57V989.681ZM1575.57 720.045V799.506H1578.08C1609.84 799.506 1625.72 785.556 1625.72 757.657C1625.72 744.943 1622.55 735.584 1616.19 729.581C1610.17 723.224 1600.14 720.045 1586.1 720.045H1575.57Z" fill="black"/>
<path d="M1808.71 905.983V717.397H1773.1C1767.42 717.397 1763.4 709.804 1761.06 694.618C1760.06 687.202 1759.56 679.609 1759.56 671.839C1759.56 664.07 1760.06 656.477 1761.06 649.061C1763.4 633.875 1767.42 626.282 1773.1 626.282H1941.62C1947.31 626.282 1951.15 633.875 1953.16 649.061C1954.5 656.477 1955.16 664.07 1955.16 671.839C1955.16 679.609 1954.5 687.202 1953.16 694.618C1951.15 709.804 1947.31 717.397 1941.62 717.397H1908.02V905.983H1943.13C1948.81 905.983 1952.82 913.575 1955.16 928.761C1956.5 936.177 1957.17 943.77 1957.17 951.54C1957.17 959.309 1956.5 966.902 1955.16 974.319C1952.82 989.504 1948.81 997.097 1943.13 997.097H1774.1C1768.42 997.097 1764.57 989.504 1762.57 974.319C1761.23 966.902 1760.56 959.309 1760.56 951.54C1760.56 943.77 1761.23 936.177 1762.57 928.761C1764.57 913.575 1768.42 905.983 1774.1 905.983H1808.71Z" fill="black"/>
<path d="M2141.6 988.621C2141.6 995.684 2125.04 999.216 2091.94 999.216C2058.84 999.216 2042.29 995.684 2042.29 988.621V722.694H1982.1C1976.42 722.694 1972.41 714.571 1970.07 698.326C1969.06 690.557 1968.56 682.611 1968.56 674.488C1968.56 666.365 1969.06 658.419 1970.07 650.65C1972.41 634.405 1976.42 626.282 1982.1 626.282H2200.28C2205.96 626.282 2209.97 634.405 2212.31 650.65C2213.32 658.419 2213.82 666.365 2213.82 674.488C2213.82 682.611 2213.32 690.557 2212.31 698.326C2209.97 714.571 2205.96 722.694 2200.28 722.694H2141.6V988.621Z" fill="black"/>
<path d="M2391.34 1002.39C2344.53 1002.39 2306.25 986.149 2276.49 953.659C2247.07 921.168 2232.35 873.845 2232.35 811.69C2232.35 749.181 2247.23 701.858 2276.99 669.72C2307.08 637.583 2345.7 621.514 2392.85 621.514C2440.33 621.514 2478.61 637.406 2507.7 669.191C2536.79 700.622 2551.34 748.474 2551.34 812.749C2551.34 876.671 2536.46 924.347 2506.7 955.778C2476.94 986.856 2438.49 1002.39 2391.34 1002.39ZM2391.85 723.224C2375.8 723.224 2362.25 730.993 2351.22 746.532C2340.52 762.071 2335.17 783.967 2335.17 812.219C2335.17 840.119 2340.35 861.661 2350.72 876.847C2361.08 891.68 2374.63 899.096 2391.34 899.096C2408.4 899.096 2422.11 891.503 2432.47 876.317C2443.17 861.132 2448.52 839.412 2448.52 811.16C2448.52 782.907 2443 761.188 2431.97 746.002C2421.27 730.817 2407.9 723.224 2391.85 723.224Z" fill="black"/>
<path fill-rule="evenodd" clip-rule="evenodd" d="M244.655 9.58048C245.647 10.1007 246.473 10.9375 247.011 11.9681L271.292 58.467L318.645 38.4933C321.2 37.4153 324.201 38.7958 325.348 41.5767C325.781 42.6271 325.902 43.7787 325.693 44.87L319.113 79.1989L343.978 82.943C346.768 83.3626 348.827 86.0964 348.578 89.0493C348.477 90.2515 347.996 91.3611 347.212 92.1988L317.08 124.421L360.456 177.286C362.346 179.589 362.202 182.992 360.135 184.887C359.291 185.661 358.212 186.094 357.071 186.116L313.024 186.984L317.22 206.637C317.847 209.574 316.142 212.373 313.413 212.889C312.335 213.092 311.206 212.911 310.197 212.372L282.484 197.574L254.959 250.545C253.633 253.096 250.559 253.909 248.092 252.363C247.098 251.74 246.31 250.791 245.854 249.668L223.94 195.716L194.38 212.372C191.96 213.736 188.856 212.691 187.447 210.038C186.891 208.991 186.663 207.796 186.797 206.637L190.994 170.265L147.237 157.414C144.504 156.612 142.785 153.632 143.397 150.76C143.63 149.665 144.186 148.695 144.986 147.987L175.407 121.051L145.614 92.1988C143.489 90.1411 143.245 86.7228 145.069 84.5638C145.811 83.6848 146.824 83.1138 147.943 82.943L193.334 76.0127L186.98 26.755C186.596 23.7833 188.534 21.1683 191.308 20.9142C192.476 20.8073 193.664 21.1396 194.667 21.8542L224.693 43.2381L237.97 11.9681C239.1 9.30553 242.093 8.23656 244.655 9.58048Z" fill="#B9CD2B"/>
<path fill-rule="evenodd" clip-rule="evenodd" d="M242.927 20.922L267.992 68.9203L316.956 48.2667L309.71 86.0728L337.704 90.288L306.419 123.743L350.907 177.962L303.344 178.899L308.342 202.309L279.022 186.652L250.74 241.079L227.59 184.086L195.25 202.309L199.632 164.335L154.119 150.969L187.277 121.61L154.934 90.2888L202.111 83.086L195.549 32.219L228.245 55.5043L242.927 20.922ZM148.978 149.459C148.977 149.459 148.979 149.46 148.978 149.459V149.459ZM150.216 154.425C150.217 154.424 150.215 154.426 150.216 154.425V154.425ZM230.778 8.27491C233.633 1.5491 241.269 -1.23746 247.857 2.21768C250.391 3.54671 252.484 5.67542 253.842 8.27589L274.593 48.0138L315.409 30.7971C315.41 30.797 315.409 30.7972 315.409 30.7971C321.988 28.0219 329.631 31.6115 332.521 38.6174C333.611 41.2627 333.914 44.158 333.388 46.9024L328.515 72.325L344.692 74.7609C351.865 75.8397 357.017 82.8168 356.395 90.1997C356.14 93.2204 354.93 96.0239 352.941 98.1512L327.741 125.099L366.279 172.068C371.041 177.872 370.696 186.44 365.457 191.242C363.309 193.211 360.549 194.323 357.622 194.381L322.704 195.069L324.872 205.222C326.439 212.567 322.194 219.703 315.179 221.028C312.413 221.55 309.519 221.083 306.942 219.707L285.946 208.496L261.887 254.796C258.531 261.254 250.674 263.38 244.341 259.41C241.804 257.82 239.812 255.413 238.663 252.583L220.289 207.347L198.354 219.707C192.131 223.212 184.203 220.488 180.645 213.785C179.242 211.144 178.669 208.139 179.006 205.225C179.006 205.224 179.006 205.225 179.006 205.225L182.356 176.194L145.496 165.369C138.487 163.311 134.204 155.743 135.736 148.558C136.322 145.804 137.725 143.347 139.759 141.546L163.536 120.493L140.467 98.1512C135.093 92.9474 134.483 84.3459 139.089 78.8936C140.974 76.6624 143.557 75.1993 146.428 74.7609C146.428 74.7609 146.428 74.761 146.428 74.7609L184.557 68.9395L179.205 27.4516C179.205 27.4514 179.205 27.4518 179.205 27.4516C178.246 20.021 183.091 13.3328 190.231 12.6789C193.229 12.4042 196.27 13.2591 198.828 15.0809C198.828 15.081 198.828 15.0808 198.828 15.0809L221.141 30.9719L230.778 8.27491C230.778 8.27524 230.778 8.27459 230.778 8.27491Z" fill="black"/>
<path d="M314.068 314.682C381.127 314.682 435.489 254.154 435.489 179.489C435.489 104.824 381.127 44.2963 314.068 44.2963C247.01 44.2963 192.648 104.824 192.648 179.489C192.648 254.154 247.01 314.682 314.068 314.682Z" fill="#CC4530"/>
<path fill-rule="evenodd" clip-rule="evenodd" d="M314.068 52.5734C251.722 52.5734 200.485 108.979 200.485 179.489C200.485 250 251.722 306.405 314.068 306.405C376.414 306.405 427.652 250 427.652 179.489C427.652 108.979 376.414 52.5734 314.068 52.5734ZM184.811 179.489C184.811 100.67 242.297 36.0192 314.068 36.0192C385.84 36.0192 443.326 100.67 443.326 179.489C443.326 258.309 385.84 322.959 314.068 322.959C242.297 322.959 184.811 258.309 184.811 179.489Z" fill="black"/>
<path d="M311.59 287.092C366.332 287.092 410.709 237.681 410.709 176.73C410.709 115.779 366.332 66.3685 311.59 66.3685C256.848 66.3685 212.471 115.779 212.471 176.73C212.471 237.681 256.848 287.092 311.59 287.092Z" fill="#F2624B"/>
<path d="M145.566 309.164C212.625 309.164 266.987 248.636 266.987 173.971C266.987 99.3062 212.625 38.7782 145.566 38.7782C78.5073 38.7782 24.1455 99.3062 24.1455 173.971C24.1455 248.636 78.5073 309.164 145.566 309.164Z" fill="#CC4530"/>
<path fill-rule="evenodd" clip-rule="evenodd" d="M145.566 47.0553C83.22 47.0553 31.9823 103.461 31.9823 173.971C31.9823 244.482 83.22 300.887 145.566 300.887C207.912 300.887 259.15 244.482 259.15 173.971C259.15 103.461 207.912 47.0553 145.566 47.0553ZM16.3088 173.971C16.3088 95.1519 73.7948 30.5011 145.566 30.5011C217.337 30.5011 274.823 95.1519 274.823 173.971C274.823 252.791 217.337 317.441 145.566 317.441C73.7948 317.441 16.3088 252.791 16.3088 173.971Z" fill="black"/>
<path d="M148.044 281.574C202.786 281.574 247.163 232.163 247.163 171.212C247.163 110.261 202.786 60.8505 148.044 60.8505C93.3025 60.8505 48.9255 110.261 48.9255 171.212C48.9255 232.163 93.3025 281.574 148.044 281.574Z" fill="#F2624B"/>
<path d="M271.943 353.309C343.107 353.309 400.797 297.722 400.797 229.152C400.797 160.582 343.107 104.995 271.943 104.995C200.778 104.995 143.088 160.582 143.088 229.152C143.088 297.722 200.778 353.309 271.943 353.309Z" fill="#7F520C"/>
<path fill-rule="evenodd" clip-rule="evenodd" d="M271.943 113.272C204.414 113.272 150.925 165.852 150.925 229.152C150.925 292.452 204.414 345.032 271.943 345.032C339.472 345.032 392.96 292.452 392.96 229.152C392.96 165.852 339.472 113.272 271.943 113.272ZM135.251 229.152C135.251 155.312 197.143 96.718 271.943 96.718C346.742 96.718 408.634 155.312 408.634 229.152C408.634 302.992 346.742 361.586 271.943 361.586C197.143 361.586 135.251 302.992 135.251 229.152Z" fill="black"/>
<path d="M319.024 209.839C328.604 209.839 336.37 201.192 336.37 190.525C336.37 179.859 328.604 171.212 319.024 171.212C309.444 171.212 301.678 179.859 301.678 190.525C301.678 201.192 309.444 209.839 319.024 209.839Z" fill="black" fill-opacity="0.17"/>
<path d="M289.288 165.694C298.868 165.694 306.634 157.047 306.634 146.381C306.634 135.714 298.868 127.068 289.288 127.068C279.709 127.068 271.943 135.714 271.943 146.381C271.943 157.047 279.709 165.694 289.288 165.694Z" fill="black" fill-opacity="0.17"/>
<path fill-rule="evenodd" clip-rule="evenodd" d="M127.532 111.084C128.51 111.621 129.301 112.502 129.783 113.59L143.53 144.598L172.386 131.799C174.928 130.671 177.811 132.051 178.825 134.882C179.228 136.009 179.287 137.253 178.991 138.421L172.745 163.089L195.529 166.776C198.238 167.214 200.114 170.014 199.721 173.03C199.564 174.231 199.056 175.341 198.276 176.188L176.026 200.331L195.887 226.928C197.637 229.272 197.349 232.751 195.244 234.699C194.406 235.474 193.361 235.921 192.272 235.969L169.271 236.982L173.163 262.243C173.626 265.247 171.814 268.1 169.116 268.615C168.042 268.82 166.937 268.625 165.972 268.06L138.474 251.964L121.894 281.211C120.432 283.788 117.372 284.558 115.057 282.931C114.136 282.283 113.431 281.315 113.054 280.176L105.076 256.13L84.7059 268.06C82.2832 269.479 79.2867 268.441 78.0131 265.744C77.5059 264.67 77.3309 263.439 77.5151 262.243L82.7597 228.153L52.6613 219.631C50.0086 218.88 48.405 215.876 49.0796 212.923C49.3482 211.747 49.9575 210.702 50.8133 209.95L68.8831 194.074L52.4024 176.188C50.4424 174.061 50.4023 170.567 52.3129 168.385C53.0736 167.516 54.0705 166.95 55.1491 166.776L85.8869 161.804L83.8673 127.289C83.6891 124.248 85.7588 121.622 88.4901 121.423C89.5777 121.344 90.6584 121.667 91.5648 122.341L110.706 136.57L120.895 113.59C122.106 110.858 125.078 109.735 127.532 111.084Z" fill="#B9CD2B"/>
<path fill-rule="evenodd" clip-rule="evenodd" d="M125.339 123.085L139.624 155.308L170.017 141.828L162.915 169.873L189.235 174.131L165.617 199.759L186.656 227.932L160.116 229.101L164.531 257.754L135.644 240.844L118.4 271.261L109.4 244.133L86.1455 257.753L91.6312 222.096L59.5748 213.019L80.4084 194.714L61.4429 174.132L94.1504 168.841L92.0424 132.818L113.839 149.02L125.339 123.085ZM91.689 126.779C91.689 126.778 91.6891 126.779 91.689 126.779V126.779ZM113.798 110.08C116.791 103.328 124.519 100.098 131.149 103.742C133.707 105.147 135.694 107.404 136.881 110.081L147.435 133.889L169.35 124.168C169.351 124.168 169.35 124.169 169.35 124.168C176.258 121.104 183.678 125.036 186.155 131.955C187.14 134.707 187.28 137.723 186.562 140.558L182.575 156.306L196.716 158.594C204.014 159.775 208.412 167.051 207.484 174.16C207.105 177.063 205.87 179.813 203.892 181.961L186.434 200.904L202.041 221.802C206.331 227.55 205.699 236.028 200.409 240.924C198.258 242.914 195.517 244.11 192.599 244.239L178.425 244.863L180.898 260.914C181.989 267.996 177.762 275.375 170.511 276.76C167.638 277.309 164.701 276.78 162.173 275.3L141.304 263.084L128.617 285.463C124.95 291.931 116.903 294.172 110.715 289.821C108.328 288.143 106.58 285.693 105.658 282.914C105.658 282.914 105.658 282.914 105.658 282.914L100.752 268.127L88.5063 275.299C81.9764 279.122 74.1589 276.128 71 269.438C69.7523 266.796 69.3348 263.807 69.7798 260.916C69.7799 260.916 69.7797 260.917 69.7798 260.916L73.8883 234.211L50.632 227.626C50.632 227.626 50.6321 227.626 50.632 227.626C43.5586 225.623 39.8681 217.958 41.4614 210.982C42.1131 208.129 43.6088 205.514 45.8014 203.588C45.8018 203.587 45.801 203.588 45.8014 203.588L57.3578 193.434L46.7863 181.961C41.9133 176.672 41.8252 168.173 46.5589 162.766C48.4886 160.561 51.0802 159.061 53.9625 158.594L77.6235 154.767L76.0455 127.801C76.0454 127.8 76.0455 127.801 76.0455 127.801C75.6255 120.628 80.5478 113.704 87.9524 113.166C90.8671 112.954 93.7246 113.825 96.0751 115.572C96.0753 115.572 96.075 115.572 96.0751 115.572L107.573 124.119L113.798 110.08C113.798 110.081 113.798 110.08 113.798 110.08Z" fill="black"/>
<path fill-rule="evenodd" clip-rule="evenodd" d="M196.297 138.106C197.384 138.006 198.469 138.307 199.386 138.963L225.512 157.66L244.326 130.14C245.984 127.715 249.093 127.245 251.271 129.09C252.139 129.825 252.764 130.858 253.051 132.029L259.108 156.756L280.343 146.85C282.868 145.672 285.772 146.996 286.829 149.807C287.25 150.926 287.328 152.169 287.051 153.342L279.147 186.797L308.475 198.205C311.059 199.21 312.421 202.358 311.518 205.235C311.158 206.38 310.469 207.362 309.558 208.027L290.311 222.086L305.332 241.507C307.118 243.817 306.885 247.301 304.811 249.289C303.985 250.081 302.947 250.548 301.859 250.617L270.843 252.588L270.159 287.167C270.099 290.213 267.832 292.629 265.095 292.561C264.005 292.534 262.954 292.108 262.104 291.349L244.143 275.312L232.2 297.22C230.78 299.825 227.732 300.654 225.392 299.072C224.46 298.443 223.741 297.488 223.346 296.357L212.072 264.129L182.331 274.084C179.709 274.961 176.946 273.307 176.158 270.388C175.844 269.226 175.883 267.981 176.269 266.846L184.414 242.875L162.013 236.994C159.349 236.295 157.699 233.323 158.327 230.357C158.577 229.176 159.17 228.12 160.014 227.352L184.062 205.463L166.365 177.036C164.806 174.532 165.365 171.094 167.614 169.358C168.51 168.666 169.585 168.323 170.674 168.381L193.663 169.6L191.767 144.06C191.541 141.023 193.57 138.357 196.297 138.106Z" fill="#B9CD2B"/>
<path fill-rule="evenodd" clip-rule="evenodd" d="M195.105 146.074C195.106 146.075 195.104 146.073 195.105 146.074V146.074ZM199.884 149.494L227.222 169.057L247.033 140.081L253.937 168.269L278.326 156.891L269.973 192.247L300.937 204.291L278.843 220.429L295.948 242.544L263.329 244.617L262.613 280.813L242.212 262.597L228.572 287.619L216.74 253.793L185.258 264.331L194.603 236.824L168.924 230.083L194.368 206.924L175.812 177.118L202.038 178.509L199.884 149.494ZM250.423 135.122C250.423 135.122 250.423 135.122 250.423 135.122V135.122ZM184.119 144.932C183.553 137.314 188.695 130.347 195.823 129.69C198.621 129.432 201.373 130.211 203.667 131.853C203.668 131.853 203.667 131.853 203.667 131.853L223.803 146.262L238.23 125.159C238.23 125.158 238.23 125.159 238.23 125.159C242.573 118.805 250.6 117.751 256.035 122.356C258.198 124.188 259.75 126.754 260.464 129.664L264.28 145.243L277.48 139.085C284.074 136.009 291.335 139.538 293.929 146.431C294.974 149.207 295.179 152.32 294.476 155.299L288.322 181.347L311.172 190.235C317.626 192.747 321.048 200.565 318.765 207.836C317.848 210.759 316.076 213.3 313.704 215.033L301.779 223.744L311.221 235.952C315.601 241.615 315.191 250.416 309.779 255.605C307.631 257.664 304.939 258.871 302.135 259.049L278.358 260.56L277.832 287.166C277.679 294.863 271.873 301.18 264.756 301.005C261.962 300.936 259.31 299.846 257.191 297.953L246.074 288.027L238.758 301.448C235.05 308.248 227.15 310.27 221.272 306.295C218.942 304.72 217.157 302.345 216.177 299.541L207.405 274.465L184.416 282.16C177.602 284.44 170.732 280.118 168.798 272.956C168.018 270.068 168.104 266.936 169.088 264.041C169.088 264.04 169.088 264.041 169.088 264.041L174.224 248.925L160.08 245.212C153.381 243.454 149.279 236.057 150.856 228.612C151.491 225.613 153.006 222.889 155.2 220.892L173.756 204.002L160.005 181.913C160.004 181.913 160.005 181.913 160.005 181.913C156.179 175.769 157.409 167.026 163.301 162.478C165.632 160.678 168.419 159.797 171.211 159.945C171.211 159.945 171.21 159.945 171.211 159.945L185.289 160.692L184.119 144.932Z" fill="black"/>
<path fill-rule="evenodd" clip-rule="evenodd" d="M366.338 446.474L415.692 783.35C432.448 897.727 362.757 1005.57 260.032 1024.23C250.001 1026.05 239.855 1026.97 229.691 1026.97C107.255 1026.97 8 916.455 8 780.13V192.201C8 183.058 14.6566 175.646 22.8678 175.646C24.0345 175.646 25.1971 175.799 26.3317 176.102L173.472 215.351C273.712 242.09 349.744 333.204 366.338 446.474Z" fill="#DEAE7E"/>
<path fill-rule="evenodd" clip-rule="evenodd" d="M22.8679 183.924C19.3693 183.924 15.8368 187.212 15.8368 192.201V780.13C15.8368 912.3 111.967 1018.69 229.691 1018.69C239.409 1018.69 249.111 1017.81 258.704 1016.07C356.863 998.245 424.106 894.91 407.947 784.616L358.594 447.74C342.449 337.541 268.55 249.25 171.553 223.376L24.4128 184.127C23.9037 183.991 23.3855 183.924 22.8679 183.924ZM0.16333 192.201C0.16333 178.904 9.94398 167.369 22.8679 167.369C24.6836 167.369 26.4908 167.607 28.2507 168.077L175.391 207.326C278.874 234.93 357.038 328.866 374.083 445.208L423.436 782.084C440.791 900.545 368.651 1012.9 261.36 1032.39C250.891 1034.29 240.3 1035.24 229.691 1035.24C102.542 1035.24 0.16333 920.609 0.16333 780.13V192.201Z" fill="black"/>
<path fill-rule="evenodd" clip-rule="evenodd" d="M451.383 177.315V789.119C451.383 920.479 355.742 1026.97 237.764 1026.97H230.11C126.101 1026.97 41.7842 933.087 41.7842 817.28C41.7842 809.125 42.2115 800.976 43.0641 792.875C64.7157 587.155 95.9857 443.345 136.874 361.446C191.168 252.696 294.18 189.49 445.912 171.827C448.634 171.51 451.071 173.711 451.356 176.741C451.374 176.932 451.383 177.124 451.383 177.315Z" fill="#F4C99D"/>
<path fill-rule="evenodd" clip-rule="evenodd" d="M443.546 180.438C295.292 198.416 196.141 260.48 143.806 365.307C103.665 445.709 72.4971 588.14 50.8529 793.79C50.0324 801.586 49.621 809.43 49.621 817.281C49.621 928.933 130.813 1018.69 230.11 1018.69H237.764C351.03 1018.69 443.546 916.325 443.546 789.119V180.438ZM445.053 163.6C452.491 162.734 458.478 168.722 459.154 175.925C459.198 176.386 459.22 176.85 459.22 177.315V789.119C459.22 924.633 360.455 1035.24 237.764 1035.24H230.11C121.388 1035.24 33.9475 937.242 33.9475 817.281C33.9475 808.819 34.3909 800.365 35.2754 791.961C56.9345 586.17 88.3063 440.982 129.942 357.585C185.816 245.671 291.631 181.459 445.053 163.6L445.053 163.6Z" fill="black"/>
<path d="M373.539 336.755C383.119 336.755 390.885 328.108 390.885 317.441C390.885 306.775 383.119 298.128 373.539 298.128C363.96 298.128 356.194 306.775 356.194 317.441C356.194 328.108 363.96 336.755 373.539 336.755Z" fill="black" fill-opacity="0.17"/>
<path d="M182.736 634.731C190.947 634.731 197.604 627.319 197.604 618.177C197.604 609.034 190.947 601.623 182.736 601.623C174.524 601.623 167.868 609.034 167.868 618.177C167.868 627.319 174.524 634.731 182.736 634.731Z" fill="black" fill-opacity="0.17"/>
<path d="M247.163 441.598C252.637 441.598 257.075 436.657 257.075 430.562C257.075 424.467 252.637 419.526 247.163 419.526C241.689 419.526 237.251 424.467 237.251 430.562C237.251 436.657 241.689 441.598 247.163 441.598Z" fill="black" fill-opacity="0.17"/>
<path d="M338.848 927.189C345.691 927.189 351.238 921.013 351.238 913.394C351.238 905.775 345.691 899.599 338.848 899.599C332.005 899.599 326.458 905.775 326.458 913.394C326.458 921.013 332.005 927.189 338.848 927.189Z" fill="black" fill-opacity="0.17"/>
<path d="M306.634 717.502C312.108 717.502 316.546 712.561 316.546 706.466C316.546 700.371 312.108 695.43 306.634 695.43C301.16 695.43 296.722 700.371 296.722 706.466C296.722 712.561 301.16 717.502 306.634 717.502Z" fill="black" fill-opacity="0.17"/>
<path d="M78.6609 320.2C84.1351 320.2 88.5728 315.259 88.5728 309.164C88.5728 303.069 84.1351 298.128 78.6609 298.128C73.1867 298.128 68.749 303.069 68.749 309.164C68.749 315.259 73.1867 320.2 78.6609 320.2Z" fill="black" fill-opacity="0.17"/>
<path d="M53.8815 425.044C56.6186 425.044 58.8374 422.573 58.8374 419.526C58.8374 416.478 56.6186 414.008 53.8815 414.008C51.1444 414.008 48.9255 416.478 48.9255 419.526C48.9255 422.573 51.1444 425.044 53.8815 425.044Z" fill="black" fill-opacity="0.17"/>
<path d="M167.868 518.851C170.605 518.851 172.824 516.381 172.824 513.333C172.824 510.286 170.605 507.815 167.868 507.815C165.131 507.815 162.912 510.286 162.912 513.333C162.912 516.381 165.131 518.851 167.868 518.851Z" fill="black" fill-opacity="0.17"/>
</svg>
